<svg width="1436" height="63" viewBox="0 0 1436 63" fill="none" xmlns="http://www.w3.org/2000/svg">
<path d="M744.804 18.8731H747.068V36.2708L755.395 18.8731H758.584V40.4343H756.304V22.1941L747.613 40.4343H744.804V18.8731ZM756.419 14.3131C755.13 15.5908 753.561 16.2296 751.71 16.2296C749.86 16.2296 748.29 15.5908 747.002 14.3131L748.29 13.0574C749.326 14.0928 750.466 14.6105 751.71 14.6105C752.955 14.6105 754.095 14.0928 755.13 13.0574L756.419 14.3131Z" fill="#FF16B0"/>
<circle cx="752.841" cy="29.6453" r="24.7819" stroke="#FF16B0" stroke-width="1.53686"/>
<circle cx="753.032" cy="29.8374" r="28.432" stroke="#FF16B0" stroke-width="1.53686"/>
<circle cx="319.011" cy="29.6449" r="24.7819" stroke="#FF16B0" stroke-width="1.53686"/>
<circle cx="319.202" cy="29.8372" r="28.432" stroke="#FF16B0" stroke-width="1.53686"/>
<path d="M310.678 39.1778C311.306 38.6381 311.862 38.0598 312.347 37.443C312.832 36.8151 313.239 35.9835 313.57 34.9481C313.9 33.9128 314.148 32.5965 314.313 30.9994C314.489 29.3912 314.577 27.348 314.577 24.8697V19.5497H322.987V39.1778H326.077V46.3814H324.045V41.1108H312.71V46.3814H310.678V39.1778ZM316.841 24.8697C316.841 26.8083 316.775 28.5211 316.643 30.0081C316.522 31.495 316.323 32.8168 316.048 33.9733C315.784 35.1189 315.431 36.1157 314.991 36.9638C314.55 37.812 314.016 38.5499 313.388 39.1778H320.724V21.4827H316.841V24.8697Z" fill="#FF16B0"/>
<circle cx="391.316" cy="29.6449" r="24.7819" stroke="#FF16B0" stroke-width="1.53686"/>
<circle cx="391.507" cy="29.8372" r="28.432" stroke="#FF16B0" stroke-width="1.53686"/>
<path d="M397.572 41.1108H383.793V19.5497H397.572V21.4827H386.056V29.1985H394.548V31.1316H386.056V39.1778H397.572V41.1108Z" fill="#FF16B0"/>
<circle cx="463.626" cy="29.6451" r="24.7819" stroke="#FF16B0" stroke-width="1.53686"/>
<circle cx="463.817" cy="29.8374" r="28.432" stroke="#FF16B0" stroke-width="1.53686"/>
<path d="M469.88 41.1108H456.101V19.5497H469.88V21.4827H458.364V29.1985H466.857V31.1316H458.364V39.1778H469.88V41.1108ZM467.6 16.4766H464.527V13.387H467.6V16.4766ZM461.454 16.4766H458.364V13.387H461.454V16.4766Z" fill="#FF16B0"/>
<circle cx="897.451" cy="29.6453" r="24.7819" stroke="#FF16B0" stroke-width="1.53686"/>
<circle cx="897.644" cy="29.8374" r="28.432" stroke="#FF16B0" stroke-width="1.53686"/>
<path d="M903.14 18.9828V40.5439H900.86V20.9158H893.904V37.1239C893.904 37.7297 893.8 38.2694 893.591 38.743C893.392 39.2167 893.122 39.6132 892.781 39.9326C892.439 40.2521 892.043 40.4944 891.591 40.6596C891.14 40.8358 890.666 40.924 890.17 40.924C889.245 40.924 888.568 40.7863 888.138 40.5109L888.584 38.71C888.739 38.8091 888.909 38.8807 889.097 38.9248C889.295 38.9688 889.554 38.9909 889.873 38.9909C891.041 38.9909 891.624 38.3686 891.624 37.1239V18.9828H903.14Z" fill="#FF16B0"/>
<circle cx="29.7906" cy="29.6456" r="24.7819" stroke="#FF16B0" stroke-width="1.53686"/>
<circle cx="29.9817" cy="29.8374" r="28.432" stroke="#FF16B0" stroke-width="1.53686"/>
<path d="M37.3286 41.1108H34.8999L32.8676 34.9481H24.3423L22.3431 41.1108H19.9144L27.085 19.5497H30.158L37.3286 41.1108ZM32.2233 32.949L28.605 21.8297L24.9867 32.949H32.2233Z" fill="#FF16B0"/>
<circle cx="825.146" cy="29.6453" r="24.7819" stroke="#FF16B0" stroke-width="1.53686"/>
<circle cx="825.337" cy="29.8374" r="28.432" stroke="#FF16B0" stroke-width="1.53686"/>
<path d="M831.562 41.7876H828.786L821.615 31.2301L819.335 33.7744V41.7876H817.072V20.2264H819.335V30.7179L828.571 20.2264H831.562L823.102 29.6439L831.562 41.7876Z" fill="#FF16B0"/>
<circle cx="102.095" cy="29.6456" r="24.7819" stroke="#FF16B0" stroke-width="1.53686"/>
<circle cx="102.286" cy="29.8376" r="28.432" stroke="#FF16B0" stroke-width="1.53686"/>
<path d="M109.005 36.3677C109.005 34.9689 108.537 33.906 107.6 33.179C106.664 32.441 105.414 32.072 103.85 32.072H98.9759V40.5313H103.85C105.414 40.5313 106.664 40.1843 107.6 39.4904C108.537 38.7855 109.005 37.7446 109.005 36.3677ZM98.9759 30.1555H103.85C106.196 30.1555 108.019 30.6732 109.319 31.7085C110.618 32.7439 111.268 34.297 111.268 36.3677C111.268 38.4275 110.618 39.9585 109.319 40.9609C108.019 41.9632 106.185 42.4644 103.817 42.4644H96.7123V20.9032H110.492V22.8362H98.9759V30.1555Z" fill="#FF16B0"/>
<circle cx="174.402" cy="29.6453" r="24.7819" stroke="#FF16B0" stroke-width="1.53686"/>
<circle cx="174.593" cy="29.8374" r="28.432" stroke="#FF16B0" stroke-width="1.53686"/>
<path d="M180.866 34.3812C180.866 36.441 180.2 37.983 178.867 39.0074C177.534 40.0318 175.64 40.5439 173.183 40.5439H166.31V18.9828H172.803C173.706 18.9828 174.593 19.0599 175.463 19.2141C176.333 19.3573 177.11 19.6326 177.793 20.0402C178.487 20.4477 179.049 21.015 179.478 21.7419C179.908 22.4579 180.122 23.3996 180.122 24.5672C180.122 26.8032 179.005 28.3287 176.769 29.1438C179.5 29.9809 180.866 31.7267 180.866 34.3812ZM177.859 24.5672C177.859 23.8072 177.699 23.1849 177.38 22.7002C177.06 22.2156 176.653 21.8466 176.157 21.5932C175.662 21.3289 175.116 21.1526 174.522 21.0645C173.927 20.9654 173.354 20.9158 172.803 20.9158H168.574V28.2351H172.803C173.42 28.2351 174.026 28.191 174.621 28.1029C175.215 28.0038 175.75 27.822 176.223 27.5577C176.697 27.2823 177.088 26.9078 177.396 26.4342C177.705 25.9605 177.859 25.3382 177.859 24.5672ZM178.602 34.3812C178.602 32.8943 178.118 31.8148 177.149 31.1429C176.19 30.46 174.869 30.1186 173.183 30.1186H168.574V38.6109H173.183C174.869 38.6109 176.19 38.2584 177.149 37.5535C178.118 36.8375 178.602 35.7801 178.602 34.3812Z" fill="#FF16B0"/>
<circle cx="608.232" cy="29.6449" r="24.7819" stroke="#FF16B0" stroke-width="1.53686"/>
<circle cx="608.423" cy="29.8372" r="28.432" stroke="#FF16B0" stroke-width="1.53686"/>
<path d="M615.099 35.1629C615.099 36.1102 614.906 36.9748 614.521 37.7569C614.135 38.5279 613.618 39.1888 612.968 39.7395C612.329 40.2902 611.586 40.7198 610.737 41.0282C609.9 41.3366 609.019 41.4908 608.094 41.4908C607.059 41.4908 606.089 41.3532 605.186 41.0778C604.283 40.7914 603.484 40.3674 602.79 39.8056C602.107 39.2439 601.551 38.5499 601.122 37.7238C600.692 36.8977 600.433 35.9395 600.345 34.849L602.542 34.5516C602.675 36.2038 603.253 37.454 604.277 38.3021C605.291 39.1392 606.563 39.5578 608.094 39.5578C608.744 39.5578 609.355 39.4476 609.928 39.2273C610.501 39.007 611.002 38.7041 611.431 38.3186C611.861 37.9331 612.197 37.4705 612.439 36.9308C612.692 36.3911 612.819 35.8018 612.819 35.1629C612.819 34.2818 612.681 33.5658 612.406 33.0151C612.131 32.4533 611.723 32.0182 611.183 31.7098C610.655 31.3904 609.999 31.1756 609.217 31.0655C608.435 30.9553 607.538 30.9003 606.524 30.9003V28.9672C607.262 28.9672 607.984 28.9066 608.689 28.7854C609.394 28.6643 610.021 28.455 610.572 28.1576C611.123 27.8602 611.569 27.4692 611.91 26.9845C612.252 26.4889 612.423 25.8721 612.423 25.1341C612.423 23.9225 612.021 22.9532 611.217 22.2262C610.412 21.4882 609.372 21.1192 608.094 21.1192C607.378 21.1192 606.684 21.2569 606.012 21.5323C605.351 21.8077 604.789 22.1711 604.327 22.6227C603.886 23.0413 603.517 23.559 603.22 24.1758C602.923 24.7926 602.774 25.5196 602.774 26.3567H600.709V19.5497H602.642V22.061C602.906 21.5213 603.242 21.0697 603.649 20.7062C604.057 20.3427 604.503 20.0508 604.988 19.8305C605.472 19.5992 605.979 19.434 606.508 19.3349C607.036 19.2357 607.565 19.1862 608.094 19.1862C609.019 19.1862 609.884 19.3239 610.688 19.5992C611.492 19.8636 612.186 20.2491 612.77 20.7558C613.364 21.2624 613.833 21.8848 614.174 22.6227C614.515 23.3607 614.686 24.1978 614.686 25.1341C614.686 26.3677 614.323 27.3866 613.596 28.1907C612.869 28.9947 611.822 29.5014 610.457 29.7107C611.217 29.8208 611.883 30.0411 612.456 30.3716C613.039 30.702 613.524 31.115 613.91 31.6107C614.306 32.0953 614.604 32.6461 614.802 33.2629C615 33.8687 615.099 34.502 615.099 35.1629Z" fill="#FF16B0"/>
<circle cx="535.926" cy="29.6453" r="24.7819" stroke="#FF16B0" stroke-width="1.53686"/>
<circle cx="536.117" cy="29.8374" r="28.432" stroke="#FF16B0" stroke-width="1.53686"/>
<path d="M533.583 41.1108V32.5525L532.675 30.9003L528.346 41.1108H525.983L531.254 28.9341L525.983 19.5497H528.445L533.583 29.1324V19.5497H535.863V29.1324L541.002 19.5497H543.464L538.193 28.9341L543.464 41.1108H541.101L536.772 30.9003L535.863 32.5525V41.1108H533.583Z" fill="#FF16B0"/>
<circle cx="246.707" cy="29.6453" r="24.7819" stroke="#FF16B0" stroke-width="1.53686"/>
<circle cx="246.898" cy="29.8374" r="28.432" stroke="#FF16B0" stroke-width="1.53686"/>
<path d="M241.324 20.9032H255.912V22.8362H243.587V42.4644H241.324V20.9032Z" fill="#FF16B0"/>
<circle cx="680.537" cy="29.6453" r="24.7819" stroke="#FF16B0" stroke-width="1.53686"/>
<circle cx="680.728" cy="29.8374" r="28.432" stroke="#FF16B0" stroke-width="1.53686"/>
<path d="M672.445 18.9828H674.708V36.3804L683.035 18.9828H686.224V40.5439H683.944V22.3037L675.254 40.5439H672.445V18.9828Z" fill="#FF16B0"/>
<path d="M1050.26 40.4343H1047.98V30.4551H1038.75V40.4343H1036.48V18.8731H1038.75V28.522H1047.98V18.8731H1050.26V40.4343Z" fill="#FF16B0"/>
<circle cx="1044.52" cy="29.6453" r="24.7819" stroke="#FF16B0" stroke-width="1.53686"/>
<circle cx="1044.71" cy="29.8374" r="28.432" stroke="#FF16B0" stroke-width="1.53686"/>
<circle cx="1189.13" cy="29.6451" r="24.7819" stroke="#FF16B0" stroke-width="1.53686"/>
<circle cx="1189.32" cy="29.8372" r="28.432" stroke="#FF16B0" stroke-width="1.53686"/>
<path d="M1194.82 40.5439H1192.54V20.9158H1183.3V40.5439H1181.04V18.9828H1194.82V40.5439Z" fill="#FF16B0"/>
<circle cx="1261.44" cy="33.1036" r="24.7819" stroke="#FF16B0" stroke-width="1.53686"/>
<circle cx="1261.63" cy="33.2956" r="28.432" stroke="#FF16B0" stroke-width="1.53686"/>
<path d="M1267.9 28.604C1267.9 30.6857 1267.25 32.2333 1265.95 33.2466C1264.65 34.26 1262.83 34.7667 1260.48 34.7667H1255.61V44.0024H1253.34V22.4413H1260.45C1262.82 22.4413 1264.65 22.9589 1265.95 23.9943C1267.25 25.0187 1267.9 26.5552 1267.9 28.604ZM1265.64 28.604C1265.64 27.117 1265.17 26.0431 1264.23 25.3822C1263.3 24.7103 1262.04 24.3743 1260.48 24.3743H1255.61V32.8336H1260.48C1262.04 32.8336 1263.3 32.5031 1264.23 31.8423C1265.17 31.1704 1265.64 30.0909 1265.64 28.604Z" fill="#FF16B0"/>
<circle cx="1333.74" cy="32.6373" r="24.7819" stroke="#FF16B0" stroke-width="1.53686"/>
<circle cx="1333.93" cy="32.8293" r="28.432" stroke="#FF16B0" stroke-width="1.53686"/>
<path d="M1340.37 37.8856C1339.81 39.7361 1338.89 41.1955 1337.61 42.2639C1336.33 43.3324 1334.72 43.8666 1332.78 43.8666C1331.27 43.8666 1330 43.5637 1328.95 42.9579C1327.9 42.3521 1327.04 41.537 1326.37 40.5126C1325.71 39.4882 1325.23 38.3042 1324.94 36.9604C1324.65 35.6166 1324.51 34.2232 1324.51 32.7803C1324.51 31.3374 1324.65 29.9441 1324.94 28.6003C1325.23 27.2565 1325.71 26.0669 1326.37 25.0315C1327.04 23.9961 1327.9 23.17 1328.95 22.5532C1330 21.9254 1331.27 21.6115 1332.78 21.6115C1334.12 21.6115 1335.26 21.8483 1336.2 22.3219C1337.15 22.7955 1337.85 23.517 1338.3 24.4863V21.975H1340.23V29.0464H1338.3C1338.3 28.2863 1338.15 27.5704 1337.86 26.8985C1337.57 26.2156 1337.18 25.6263 1336.68 25.1306C1336.19 24.635 1335.6 24.2495 1334.91 23.9741C1334.24 23.6877 1333.53 23.5445 1332.78 23.5445C1331.62 23.5445 1330.65 23.8199 1329.88 24.3706C1329.12 24.9214 1328.5 25.6428 1328.04 26.535C1327.58 27.4272 1327.25 28.4185 1327.05 29.509C1326.86 30.5994 1326.77 31.6899 1326.77 32.7803C1326.77 33.8598 1326.86 34.9502 1327.05 36.0517C1327.25 37.1421 1327.58 38.1224 1328.04 38.9926C1328.5 39.8517 1329.12 40.5622 1329.88 41.1239C1330.65 41.6747 1331.62 41.95 1332.78 41.95C1335.47 41.95 1337.34 40.3364 1338.4 37.1091L1340.37 37.8856Z" fill="#FF16B0"/>
<circle cx="1116.83" cy="29.6453" r="24.7819" stroke="#FF16B0" stroke-width="1.53686"/>
<circle cx="1117.02" cy="29.8374" r="28.432" stroke="#FF16B0" stroke-width="1.53686"/>
<path d="M1123.92 31.0318C1123.92 32.4747 1123.77 33.8681 1123.47 35.2118C1123.18 36.5556 1122.7 37.7397 1122.05 38.7641C1121.4 39.7884 1120.55 40.6145 1119.49 41.2424C1118.45 41.8592 1117.17 42.1676 1115.66 42.1676C1114.15 42.1676 1112.87 41.8592 1111.81 41.2424C1110.76 40.6145 1109.91 39.7884 1109.25 38.7641C1108.6 37.7397 1108.13 36.5556 1107.84 35.2118C1107.55 33.8681 1107.4 32.4747 1107.4 31.0318C1107.4 29.5889 1107.55 28.1955 1107.84 26.8517C1108.13 25.5079 1108.6 24.3184 1109.27 23.283C1109.94 22.2476 1110.8 21.4215 1111.84 20.8047C1112.9 20.1768 1114.17 19.8629 1115.66 19.8629C1117.15 19.8629 1118.41 20.1768 1119.46 20.8047C1120.52 21.4215 1121.37 22.2476 1122.02 23.283C1122.67 24.3184 1123.15 25.5079 1123.46 26.8517C1123.77 28.1955 1123.92 29.5889 1123.92 31.0318ZM1121.64 31.0318C1121.64 29.6109 1121.5 28.3332 1121.23 27.1987C1120.96 26.0532 1120.58 25.0784 1120.07 24.2743C1119.56 23.4702 1118.94 22.8589 1118.19 22.4404C1117.45 22.0108 1116.61 21.796 1115.66 21.796C1114.48 21.796 1113.51 22.0714 1112.74 22.6221C1111.98 23.1728 1111.36 23.8943 1110.9 24.7865C1110.44 25.6787 1110.11 26.67 1109.93 27.7604C1109.75 28.8509 1109.66 29.9413 1109.66 31.0318C1109.66 32.1112 1109.75 33.2017 1109.93 34.3031C1110.11 35.3936 1110.44 36.3794 1110.9 37.2606C1111.36 38.1307 1111.98 38.8467 1112.74 39.4084C1113.51 39.9592 1114.48 40.2345 1115.66 40.2345C1116.83 40.2345 1117.8 39.9592 1118.57 39.4084C1119.34 38.8467 1119.96 38.1307 1120.42 37.2606C1120.88 36.3794 1121.2 35.3936 1121.38 34.3031C1121.55 33.2017 1121.64 32.1112 1121.64 31.0318Z" fill="#FF16B0"/>
<circle cx="972.214" cy="29.6453" r="24.7819" stroke="#FF16B0" stroke-width="1.53686"/>
<circle cx="972.405" cy="29.8374" r="28.432" stroke="#FF16B0" stroke-width="1.53686"/>
<path d="M977.904 40.5439H975.624V22.5846L971.807 33.7038H970.188L966.388 22.5846V40.5439H964.125V18.9828H967.065L970.998 30.2508L974.963 18.9828H977.904V40.5439Z" fill="#FF16B0"/>
<circle cx="1406" cy="30.4229" r="24.7819" stroke="#FF16B0" stroke-width="1.53686"/>
<circle cx="1406.19" cy="30.615" r="28.432" stroke="#FF16B0" stroke-width="1.53686"/>
<path d="M1412.49 27.0468H1410.56V21.6937H1405.93V39.3887H1409.4V41.3218H1400.17V39.3887H1403.65V21.6937H1399.03V27.0468H1397.09V19.7606H1412.49V27.0468Z" fill="#FF16B0"/>
</svg>
